<?xml version="1.0" standalone="no"?>
<!DOCTYPE svg PUBLIC "-//W3C//DTD SVG 20010904//EN"
 "http://www.w3.org/TR/2001/REC-SVG-20010904/DTD/svg10.dtd">
<svg version="1.0" xmlns="http://www.w3.org/2000/svg"
 width="500.000000pt" height="500.000000pt" viewBox="0 0 500.000000 500.000000"
 preserveAspectRatio="xMidYMid meet">
<metadata>
Created by potrace 1.10, written by Peter Selinger 2001-2011
</metadata>
<g transform="translate(0.000000,500.000000) scale(0.100000,-0.100000)"
fill="#000000" stroke="none">
<path d="M1640 2785 l0 -485 95 0 95 0 2 218 3 217 50 -217 50 -218 172 0 173
0 1 323 c0 194 4 312 9 297 5 -14 29 -149 55 -300 25 -151 48 -285 50 -298 5
-22 9 -23 93 -20 l87 3 41 255 c23 140 46 282 51 315 8 47 11 -9 12 -257 l1
-318 90 0 90 0 0 485 0 485 -148 0 -148 0 -33 -242 c-18 -134 -36 -259 -40
-278 l-8 -35 -6 30 c-4 17 -20 131 -37 255 -17 124 -33 235 -35 248 l-5 22
-242 -2 -241 -3 -41 -174 -41 -175 -3 177 -2 177 -95 0 -95 0 0 -485z m470 43
c0 -212 -4 -368 -9 -362 -5 5 -28 88 -51 185 l-44 175 43 180 c43 176 48 194
57 194 2 0 4 -167 4 -372z"/>
</g>
</svg>
